HIERARCHY
ROOT SpineBase
{
  OFFSET 0.000000 0.000000 0.000000
  CHANNELS 6 Xposition Yposition Zposition Zrotation Xrotation Yrotation
  JOINT SpineMid
  {
    OFFSET 0.000000 27.819018 0.000000
    CHANNELS 3 Zrotation Xrotation Yrotation
    JOINT SpineShoulder
    {
      OFFSET 0.123549 20.693798 -0.701287
      CHANNELS 3 Zrotation Xrotation Yrotation
      JOINT Neck
      {
        OFFSET 0.078451 6.852319 -0.533129
        CHANNELS 3 Zrotation Xrotation Yrotation
        JOINT Head
        {
          OFFSET 1.631833 13.795456 -2.833009
          CHANNELS 3 Zrotation Xrotation Yrotation
          End Site
          {
            OFFSET 0 0 0
          }
        }
      }
      JOINT ShoulderLeft
      {
        OFFSET -12.640970 -2.923181 -9.785686
        CHANNELS 3 Zrotation Xrotation Yrotation
        JOINT ElbowLeft
        {
          OFFSET -2.713412 -21.412228 -4.598302
          CHANNELS 3 Zrotation Xrotation Yrotation
          JOINT WristLeft
          {
            OFFSET 7.747473 -17.301593 -2.838496
            CHANNELS 3 Zrotation Xrotation Yrotation
            JOINT HandLeft
            {
              OFFSET -2.621793 -4.568069 4.488944
              CHANNELS 3 Zrotation Xrotation Yrotation
              JOINT HandTipLeft
              {
                OFFSET -0.510249 -6.960880 -0.582304
                CHANNELS 3 Zrotation Xrotation Yrotation
                End Site
                {
                  OFFSET 0 0 0
                }
              }
              JOINT ThumbLeft
              {
                OFFSET -6.326833 4.569469 0.726996
                CHANNELS 3 Zrotation Xrotation Yrotation
                End Site
                {
                  OFFSET 0 0 0
                }
              }
            }
          }
        }
      }
      JOINT ShoulderRight
      {
        OFFSET 14.397774 -3.572499 8.719165
        CHANNELS 3 Zrotation Xrotation Yrotation
        JOINT ElbowRight
        {
          OFFSET 0.724816 -24.274315 0.038239
          CHANNELS 3 Zrotation Xrotation Yrotation
          JOINT WristRight
          {
            OFFSET -0.440162 -16.425197 -10.713575
            CHANNELS 3 Zrotation Xrotation Yrotation
            JOINT HandRight
            {
              OFFSET -1.705176 -2.867961 -2.498841
              CHANNELS 3 Zrotation Xrotation Yrotation
              JOINT HandTipRight
              {
                OFFSET 1.386256 -6.009920 -2.419972
                CHANNELS 3 Zrotation Xrotation Yrotation
                End Site
                {
                  OFFSET 0 0 0
                }
              }
              JOINT ThumbRight
              {
                OFFSET -2.262959 -0.409295 -1.407001
                CHANNELS 3 Zrotation Xrotation Yrotation
                End Site
                {
                  OFFSET 0 0 0
                }
              }
            }
          }
        }
      }
    }
  }
  JOINT HipLeft
  {
    OFFSET -4.864403 0.772917 -6.482031
    CHANNELS 3 Zrotation Xrotation Yrotation
    JOINT KneeLeft
    {
      OFFSET -7.481329 -33.613057 3.965056
      CHANNELS 3 Zrotation Xrotation Yrotation
      JOINT AnkleLeft
      {
        OFFSET -1.281104 -27.886060 4.484232
        CHANNELS 3 Zrotation Xrotation Yrotation
        JOINT FootLeft
        {
          OFFSET 6.374041 -3.944629 -10.801819
          CHANNELS 3 Zrotation Xrotation Yrotation
          End Site
          {
            OFFSET 0 0 0
          }
        }
      }
    }
  }
  JOINT HipRight
  {
    OFFSET 5.878221 0.398336 0.124973
    CHANNELS 3 Zrotation Xrotation Yrotation
    JOINT KneeRight
    {
      OFFSET 10.631854 -32.468179 -12.262708
      CHANNELS 3 Zrotation Xrotation Yrotation
      JOINT AnkleRight
      {
        OFFSET -9.023728 -26.788413 6.881104
        CHANNELS 3 Zrotation Xrotation Yrotation
        JOINT FootRight
        {
          OFFSET 6.208603 -3.930401 -10.824235
          CHANNELS 3 Zrotation Xrotation Yrotation
          End Site
          {
            OFFSET 0 0 0
          }
        }
      }
    }
  }
}
MOTION
Frames: 6
Frame Time: 0.033333
-54.093188 68.249220 351.260550 -5.931513 -6.968206 -46.419377 -0.969764 0.058545 45.950845 -0.313194 0.451635 -0.237093 -10.685487 37.975843 -0.451045 0.000000 0.000000 0.000000 -40.868294 -1.135807 13.323719 -21.991054 -3.344200 -6.274897 87.327117 46.218675 -55.883458 -50.608948 -38.243301 -2.713772 0.000000 0.000000 0.000000 0.000000 0.000000 0.000000 -5.384259 -3.254047 0.103250 22.459702 -59.185002 -1.705723 13.368923 19.352838 10.059974 -33.530452 10.667075 -4.002507 0.000000 0.000000 0.000000 0.000000 0.000000 0.000000 -9.292505 14.110443 45.478674 -6.793202 -15.321294 -0.608309 -13.381093 -27.022917 -42.448225 0.000000 0.000000 0.000000 16.886230 -28.513255 40.860064 27.393697 43.456181 -4.439931 -13.997466 -9.945654 -8.848098 0.000000 0.000000 0.000000
-54.060931 68.295413 351.195413 -6.235809 -6.796800 -42.281912 -0.852851 0.058952 41.786849 -0.384636 0.363524 -0.254070 -11.162699 38.288725 -0.248783 0.000000 0.000000 0.000000 -39.170758 -5.043778 11.987920 -21.810967 4.806169 4.726796 69.676850 31.900922 -47.109327 -32.492036 -26.625301 17.822616 0.000000 0.000000 0.000000 0.000000 0.000000 0.000000 -5.002595 -3.203421 0.118648 19.341507 -50.396316 -2.025089 14.590917 12.448942 8.776011 -34.361346 9.000851 -2.083801 0.000000 0.000000 0.000000 0.000000 0.000000 0.000000 -7.091277 15.613402 41.229203 -8.049363 -15.207071 -0.863644 -18.867531 -30.546788 -45.426588 0.000000 0.000000 0.000000 14.817545 -30.262711 36.403449 28.295262 43.697703 -4.993719 -10.104819 -8.644653 -16.933654 0.000000 0.000000 0.000000
-53.887856 68.571857 351.012903 -6.220254 -6.678139 -38.862134 -0.789548 0.005451 38.367954 -0.358148 0.186784 -0.262736 -11.276702 38.096097 -0.201600 0.000000 0.000000 0.000000 -36.968947 -5.794682 11.366840 -22.838955 7.243375 8.226273 74.428149 23.667732 -33.901548 -53.385427 -33.501923 -5.574124 0.000000 0.000000 0.000000 0.000000 0.000000 0.000000 -4.905787 -3.092776 0.130768 16.968235 -41.105058 -1.884773 16.286776 4.959071 6.786681 -35.180832 7.514227 0.370644 0.000000 0.000000 0.000000 0.000000 0.000000 0.000000 -4.945165 15.941668 37.696610 -8.477926 -14.456515 -0.906402 -16.853181 -29.195644 -43.478582 0.000000 0.000000 0.000000 11.645772 -32.026455 33.119580 30.891500 42.995291 -6.515938 -10.590594 -9.474574 -18.537168 0.000000 0.000000 0.000000
-53.621431 68.999491 350.794860 -6.094680 -6.530471 -36.557002 -0.736059 -0.087158 36.073984 -0.267535 -0.026484 -0.267491 -11.116154 37.120205 -0.282151 0.000000 0.000000 0.000000 -34.031782 -4.240854 11.063765 -24.211454 7.159805 9.027101 67.222935 22.423556 -37.033099 -39.893685 -48.245881 -0.101325 0.000000 0.000000 0.000000 0.000000 0.000000 0.000000 -5.086242 -2.868373 0.157212 15.401188 -33.029764 -1.544458 17.839436 -1.445253 5.098468 -35.235696 5.427802 1.719165 0.000000 0.000000 0.000000 0.000000 0.000000 0.000000 -2.664809 15.146073 35.378198 -8.416599 -13.105338 -0.866748 -19.985340 -31.679163 -32.286245 0.000000 0.000000 0.000000 8.872053 -33.427196 31.001390 33.321290 42.271101 -7.961983 -15.765042 -15.012030 -18.780331 0.000000 0.000000 0.000000
-53.293389 69.581351 350.585586 -5.818362 -6.478259 -35.353342 -0.982146 -0.181734 34.903856 -0.089012 -0.190886 -0.271245 -10.065412 35.133259 -0.589028 0.000000 0.000000 0.000000 -29.561371 -0.489641 10.592590 -26.315142 4.268591 6.998509 59.869779 20.878572 -36.755630 -26.660239 -44.928438 10.083576 0.000000 0.000000 0.000000 0.000000 0.000000 0.000000 -5.264178 -2.791048 0.163225 14.415875 -26.933840 -1.247586 19.293419 -6.199855 3.533311 -36.272514 3.707182 4.067142 0.000000 0.000000 0.000000 0.000000 0.000000 0.000000 -0.950651 13.960973 34.281381 -8.686497 -11.168429 -0.979605 -19.807492 -33.065954 -18.805760 0.000000 0.000000 0.000000 6.588775 -34.483624 30.087701 35.551050 41.684202 -9.357042 -22.390456 -20.077930 -9.810256 0.000000 0.000000 0.000000
-52.885554 70.162185 350.475173 -5.289965 -6.599372 -34.453677 -0.927130 -0.188395 34.043346 0.196203 -0.426644 -0.247040 -8.958058 32.384530 -0.916313 0.000000 0.000000 0.000000 -26.399690 2.557369 10.040409 -23.449135 4.378994 7.170515 54.077395 25.451832 -42.262224 -11.445318 -48.712947 21.042384 0.000000 0.000000 0.000000 0.000000 0.000000 0.000000 -6.119428 -2.380555 0.204730 13.938161 -22.986781 -1.097474 20.441904 -9.063453 2.063485 -36.196870 1.107926 4.786270 0.000000 0.000000 0.000000 0.000000 0.000000 0.000000 -0.330556 12.587523 33.568700 -8.426652 -9.287446 -1.009333 -21.306434 -37.672802 -2.114930 0.000000 0.000000 0.000000 4.199706 -35.345310 29.505029 37.593242 41.131645 -10.670607 -25.263578 -23.087966 -6.442698 0.000000 0.000000 0.000000
